<?xml version="1.0" encoding="UTF-8"?>
<svg width="112px" height="77px" viewBox="0 0 112 77" version="1.1" xmlns="http://www.w3.org/2000/svg" xmlns:xlink="http://www.w3.org/1999/xlink">
    <!-- Generator: Sketch 48.2 (47327) - http://www.bohemiancoding.com/sketch -->
    <title>logo</title>
    <desc>Created with Sketch.</desc>
    <defs></defs>
    <g id="Desktop-HD" stroke="none" stroke-width="1" fill="none" fill-rule="evenodd" transform="translate(-664.000000, -38.000000)">
        <g id="logo" transform="translate(664.000000, 38.789733)">
            <path d="M55.9830537,15.8477044 C33.8907126,15.8477044 15.9817026,33.7570192 15.9817026,55.8487506 L95.9844048,55.8487506 C95.9844048,33.7570192 78.0753948,15.8477044 55.9830537,15.8477044" id="Fill-1" fill="#FFDD00"></path>
            <polygon id="Fill-3" fill="#DC0031" points="55.9830537 55.8658814 36.2106873 75.6382478 75.7554201 75.6382478"></polygon>
            <polygon id="Fill-5" fill="#DC0031" points="36.2105959 36.0599545 55.9829623 55.8323209 75.7553286 36.0599545"></polygon>
            <path d="M3.70278452,46.1524694 C3.43667784,46.1671007 3.11326525,46.2838463 2.83679474,46.5466 C2.56062905,46.8090488 2.32896687,47.2318323 2.22868154,47.8826201 C1.95708812,49.6450815 2.98615588,50.8030875 4.74892211,51.0740713 C6.63331099,51.3648683 8.12295972,50.7058504 8.4381422,48.6586884 C8.57592023,47.7637408 8.54086609,47.0919205 8.3939435,46.6941322 L6.90246586,46.4646037 L6.53485457,48.8513338 L4.47397569,48.5337127 L5.47621941,42.0258346 L10.6422858,42.8211065 C10.7931711,44.81523 10.7392182,47.4162476 10.4072707,49.5725347 C9.64918669,54.4941365 7.27312533,55.6829293 4.38496865,55.237894 C0.710989495,54.6718458 -0.489995975,51.8361179 0.174203857,47.5244582 C0.721353329,43.9724065 1.88667502,41.5423922 4.36485062,41.8542217 L3.70278452,46.1524694 Z" id="Fill-7" fill="#DC0031"></path>
            <path d="M7.72139163,31.583967 C7.09377004,32.8032416 7.46503915,34.1200582 9.26987036,35.0488406 C11.0750064,35.977623 12.3622555,35.5139938 12.9895723,34.2944144 C13.6171939,33.074835 13.2459248,31.7577137 11.4410936,30.8292361 C9.63595756,29.9007585 8.34901323,30.3643876 7.72139163,31.583967 M15.9060771,29.7949864 C16.3312991,31.2169654 16.1569429,33.0550218 14.9897923,35.3234822 C12.77498,39.6284359 9.95937014,40.18473 7.32482257,38.8295063 C5.61783815,37.9510189 4.73721708,36.6342024 4.53878014,35.2518498 C4.37387325,34.1032931 4.55402107,32.8230548 5.72117167,30.5548993 C7.93598396,26.2499455 10.7515938,25.6936515 13.3861414,27.0488752 C14.7395362,27.745081 15.5875416,28.7058694 15.9060771,29.7949864" id="Fill-9" fill="#DC0031"></path>
            <polygon id="Fill-11" fill="#DC0031" points="12.0516453 21.0510501 14.8821913 17.9882323 20.3829486 23.0726074 23.4835639 19.7177734 25.256694 21.3564784 19.3252279 27.7741302"></polygon>
            <path d="M28.8375205,16.0343448 L29.8175125,15.4280605 C31.4272598,14.4316084 31.94789,13.1093051 30.9733848,11.5346119 C29.9991844,9.959614 28.5833018,9.83555281 26.9735545,10.832005 L25.9935626,11.4382893 L28.8375205,16.0343448 Z M21.2633868,11.7196369 L25.7777509,8.92597396 C28.2623277,7.38846871 30.0095482,6.61392453 31.8863166,7.06566576 C32.8754531,7.30860622 33.9234197,8.06364201 34.7028409,9.32345748 C35.4682406,10.5601067 35.8035411,12.0143965 35.4292238,13.052304 C34.9287116,14.459042 34.1977564,15.3631342 31.5964341,16.9728814 L26.475176,20.1417761 L21.2633868,11.7196369 Z" id="Fill-13" fill="#DC0031"></path>
            <polygon id="Fill-15" fill="#DC0031" points="36.7169606 3.33377106 45.8703598 0.826332871 46.4211671 2.83691667 41.1563394 4.27931851 41.6385625 6.03842692 46.5723571 4.68686104 47.1234692 6.69744483 42.189065 8.04901072 42.6709833 9.80811913 47.9888494 8.35169563 48.5393519 10.3625842 39.3329143 12.8840441"></polygon>
            <polygon id="Fill-17" fill="#DC0031" points="50.7912911 0.000121927459 56.8928459 0.145215604 60.0672273 6.86067522 60.108073 6.86158968 60.2659691 0.225078089 63.8856905 0.311036948 63.6509802 10.210937 57.7411562 10.0704156 54.3707764 2.93887851 54.3433428 2.93826887 54.1759973 9.98598081 50.5562759 9.90002195"></polygon>
            <polygon id="Fill-19" fill="#DC0031" points="76.8000031 3.74902551 80.4834316 5.70291303 78.7669978 8.93795334 82.4141529 10.8729421 84.1305868 7.63790181 87.8137105 9.59209415 83.1728466 18.3397797 79.489418 16.3858922 81.2829709 13.0054534 77.6358158 11.0707694 75.8422629 14.4509034 72.1591392 12.4970159"></polygon>
            <path d="M95.1665154,18.8580933 C94.2176149,17.8674327 92.8511129,17.7893991 91.3852401,19.1940035 C89.9187576,20.5979982 89.9379611,21.9663291 90.8865568,22.9569897 C91.8354572,23.9476503 93.2019592,24.0256838 94.6681369,22.6216892 C96.1343146,21.2170848 96.115111,19.8487539 95.1665154,18.8580933 M94.1914005,27.1811665 C92.7084578,27.1198979 91.0267733,26.3560224 89.2618734,24.5133937 C85.9125261,21.0159045 86.3039132,18.1719465 88.4437401,16.122346 C89.830665,14.7942511 91.3626835,14.3906712 92.7346722,14.6531201 C93.8749988,14.8716751 95.0262988,15.4593654 96.7911988,17.3022989 C100.140546,20.7991785 99.7494638,23.6431364 97.6096369,25.692737 C96.5098512,26.7458855 95.3253259,27.2345097 94.1914005,27.1811665" id="Fill-21" fill="#DC0031"></path>
            <path d="M103.939288,26.3984836 L105.710284,30.0224725 L100.829223,32.4073736 C99.1283348,33.2386141 98.8875281,34.0890581 99.4413835,35.2232883 C99.9955438,36.3572137 100.814592,36.6900756 102.515784,35.8585304 L107.396541,33.4733244 L109.131264,37.0229376 L103.929838,39.5645155 C102.524624,40.2515767 101.80068,40.269561 100.913658,39.98547 C99.5374014,39.543483 98.3836628,38.1830774 97.4021468,36.1740177 C96.4203259,34.164958 96.0557628,32.4192616 96.552922,31.0619041 C96.8735913,30.1873794 97.3326481,29.6271228 98.7378621,28.9403663 L103.939288,26.3984836 Z" id="Fill-23" fill="#DC0031"></path>
            <path d="M107.004452,47.0160207 L107.247698,48.5882753 C107.383952,49.4692011 107.760098,50.1050528 108.681869,49.9623977 C109.549383,49.8282775 109.750868,49.1579813 109.595716,48.1554328 L109.362529,46.6511528 L107.004452,47.0160207 Z M110.704036,42.2242715 L111.78218,49.1909017 C112.195209,51.8611131 111.922701,53.5964456 109.754221,53.9314413 C108.466667,54.1314024 107.515024,53.3620401 107.10931,52.1762956 L106.973666,52.197328 C107.093459,53.1501911 106.876124,53.9887472 105.911982,54.3045393 L102.713825,55.3409228 L102.076144,51.2206891 L104.205608,50.5439917 C105.382817,50.1675407 105.518157,49.9663604 105.299907,48.5565741 L105.106956,47.309561 L101.555819,47.8594539 L100.918138,43.7389154 L110.704036,42.2242715 Z" id="Fill-25" fill="#DC0031"></path>
        </g>
    </g>
</svg>